<?xml version="1.0" encoding="utf-8"?>
<!-- Generator: Adobe Illustrator 23.0.1, SVG Export Plug-In . SVG Version: 6.00 Build 0)  -->
<svg version="1.1" id="图层_1" xmlns="http://www.w3.org/2000/svg" xmlns:xlink="http://www.w3.org/1999/xlink" x="0px" y="0px"
	 viewBox="0 0 20 20" style="enable-background:new 0 0 20 20;" xml:space="preserve">
<style type="text/css">
	.st0{clip-path:url(#SVGID_2_);fill:#556779;}
	.st1{fill:#556779;}
</style>
<g>
	<g>
		<defs>
			<rect id="SVGID_1_" y="1.08" width="19.54" height="17.91"/>
		</defs>
		<clipPath id="SVGID_2_">
			<use xlink:href="#SVGID_1_"  style="overflow:visible;"/>
		</clipPath>
		<path class="st0" d="M4,13.44H1.62v-3.07H0v8.61l1.62-0.68v-2.9l3.41-0.09c0.34,0,0.68-0.09,0.85-0.43l1.11-2.3l-1.96-1.02
			l-0.6,1.62C4.35,13.35,4.18,13.44,4,13.44L4,13.44z M14.83,14.38l4.52-3.49c0.26-0.17,0.26-0.6-0.09-0.77L18.32,9.6L5.28,1.42
			C5.03,1.25,4.52,1.08,4.09,1.08c-0.6,0-1.19,0.34-1.45,0.68L0.85,4.49C0.68,4.75,0.6,5,0.6,5.34c0,0.51,0.26,1.02,0.77,1.28
			l12.95,7.92C14.48,14.55,14.66,14.55,14.83,14.38L14.83,14.38z M14.83,14.38"/>
	</g>
	<path class="st1" d="M1.96,8.5L1.87,8.67C1.7,8.92,1.79,9.26,2.04,9.43l12.01,6.9c0.17,0.09,0.85,0.51,1.11,0.09l0.94-1.87
		l-0.77,0.43c-0.26,0.17-0.68,0.17-0.94,0L2.64,8.33C2.39,8.16,2.13,8.24,1.96,8.5L1.96,8.5z M1.96,8.5"/>
</g>
</svg>
