<?xml version="1.0" encoding="utf-8"?>
<!-- Generator: Adobe Illustrator 23.0.1, SVG Export Plug-In . SVG Version: 6.00 Build 0)  -->
<svg version="1.1" id="图层_1" xmlns="http://www.w3.org/2000/svg" xmlns:xlink="http://www.w3.org/1999/xlink" x="0px" y="0px"
	 viewBox="0 0 56 56" style="enable-background:new 0 0 56 56;" xml:space="preserve">
<style type="text/css">
	.st0{fill:#515151;}
	.st1{fill:none;stroke:#515151;stroke-width:2;stroke-linecap:round;stroke-linejoin:round;stroke-miterlimit:10;}
</style>
<path class="st0" d="M30.5,38H3.5c-1.66,0-3-1.34-3-3V14c0-1.66,1.34-3,3-3H30.5c1.66,0,3,1.34,3,3V35C33.5,36.66,32.16,38,30.5,38z
	"/>
<path class="st0" d="M35,17.82v11.55c0,0.14,0.06,0.27,0.16,0.37l9.02,8.13C44.5,38.16,45,37.93,45,37.51V11.49
	c0-0.4-0.45-0.63-0.77-0.4l-9.02,6.33C35.08,17.51,35,17.66,35,17.82z"/>
<polyline class="st1" points="49,37 49,12 54,20.33 "/>
</svg>
