<?xml version="1.0" encoding="utf-8"?>
<!-- Generator: Adobe Illustrator 23.0.1, SVG Export Plug-In . SVG Version: 6.00 Build 0)  -->
<svg version="1.1" id="图层_1" xmlns="http://www.w3.org/2000/svg" xmlns:xlink="http://www.w3.org/1999/xlink" x="0px" y="0px"
	 viewBox="0 0 20 20" style="enable-background:new 0 0 20 20;" xml:space="preserve">
<style type="text/css">
	.st0{fill:#515151;}
	.st1{fill:none;stroke:#505050;stroke-width:1.5;stroke-miterlimit:10;}
</style>
<g>
	<path class="st0" d="M16.55,3.29v11.82H3.04V3.29H16.55 M17.35,1.6H2.24C1.75,1.6,1.36,2,1.36,2.49V15.9c0,0.5,0.4,0.89,0.89,0.89
		h15.1c0.49,0,0.89-0.4,0.89-0.89V2.49C18.24,2,17.84,1.6,17.35,1.6L17.35,1.6z"/>
</g>
<g>
	<path class="st0" d="M14.3,3.1v5h-9v-5H14.3 M14.75,1.6h-9.9C4.27,1.6,3.8,2.07,3.8,2.65v5.89c0,0.59,0.47,1.06,1.05,1.06h9.89
		c0.59,0,1.06-0.47,1.06-1.05v-5.9C15.8,2.07,15.33,1.6,14.75,1.6L14.75,1.6z"/>
</g>
<line class="st1" x1="12.97" y1="3.94" x2="12.97" y2="5.94"/>
</svg>
