<?xml version="1.0" encoding="utf-8"?>
<!-- Generator: Adobe Illustrator 23.0.1, SVG Export Plug-In . SVG Version: 6.00 Build 0)  -->
<svg version="1.1" id="图层_1" xmlns="http://www.w3.org/2000/svg" xmlns:xlink="http://www.w3.org/1999/xlink" x="0px" y="0px"
	 viewBox="0 0 56 56" style="enable-background:new 0 0 56 56;" xml:space="preserve">
<style type="text/css">
	.st0{fill:#FF6600;}
	.st1{fill:#FFCC00;}
	.st2{fill:#0089CC;}
	.st3{fill:#009939;}
	.st4{fill:#BF0000;}
	.st5{fill:#FC0007;}
	.st6{fill:#1CD306;}
	.st7{fill:#0F7504;}
	.st8{fill:#0C5E87;}
	.st9{fill:#6B0001;}
	.st10{fill:#FFFFFF;}
</style>
<g transform="translate(220.38 -399.84)">
	<g transform="matrix(.55643 0 0 .55643 20.746 215.7)">
		<g transform="matrix(3.9483 0 0 -3.9483 263.23 518.98)">
			<path class="st0" d="M-162.28,28.37c0-3.17-2.57-5.74-5.74-5.74c-3.17,0-5.74,2.57-5.74,5.74s2.57,5.74,5.74,5.74
				C-164.85,34.11-162.28,31.54-162.28,28.37"/>
		</g>
		<g transform="matrix(3.9483 0 0 -3.9483 369.76 443.57)">
			<path class="st1" d="M-177.92,17.3c0-3.17-2.57-5.74-5.74-5.74c-3.17,0-5.74,2.57-5.74,5.74c0,3.17,2.57,5.74,5.74,5.74
				C-180.48,23.04-177.92,20.47-177.92,17.3"/>
		</g>
		<g transform="matrix(3.9483 0 0 -3.9483 238.1 442.38)">
			<path class="st2" d="M-158.59,17.13c0-3.17-2.57-5.74-5.74-5.74c-3.17,0-5.74,2.57-5.74,5.74c0,3.17,2.57,5.74,5.74,5.74
				C-161.16,22.86-158.59,20.3-158.59,17.13"/>
		</g>
		<g transform="matrix(3.9483 0 0 -3.9483 345.82 518.98)">
			<path class="st3" d="M-174.4,28.37c0-3.17-2.57-5.74-5.74-5.74c-3.17,0-5.74,2.57-5.74,5.74s2.57,5.74,5.74,5.74
				C-176.97,34.11-174.4,31.54-174.4,28.37"/>
		</g>
		<g transform="matrix(3.9483 0 0 -3.9483 303.93 394.5)">
			<path class="st4" d="M-168.25,10.1c0-3.17-2.57-5.74-5.74-5.74c-3.17,0-5.74,2.57-5.74,5.74s2.57,5.74,5.74,5.74
				C-170.82,15.84-168.25,13.27-168.25,10.1"/>
		</g>
		<g transform="matrix(3.9483 0 0 -3.9483 262.04 443.57)">
			<path class="st5" d="M-162.1,17.3c0-0.12,0.01-0.24,0.02-0.36c2.54,0.59,4.44,2.86,4.44,5.58c0,0.12-0.01,0.24-0.02,0.36
				C-160.2,22.3-162.1,20.03-162.1,17.3"/>
		</g>
		<g transform="matrix(3.9483 0 0 -3.9483 269.15 470.24)">
			<path class="st6" d="M-163.15,21.22c0.99-1.73,2.85-2.9,4.98-2.9c0.87,0,1.69,0.2,2.43,0.55c-0.99,1.73-2.85,2.9-4.98,2.9
				C-161.59,21.76-162.41,21.57-163.15,21.22"/>
		</g>
		<g transform="matrix(3.9483 0 0 -3.9483 238.1 518.98)">
			<path class="st7" d="M-158.59,28.37c0-1.4,0.5-2.68,1.34-3.68c0.83,1,1.34,2.28,1.34,3.68c0,1.4-0.5,2.68-1.34,3.68
				C-158.09,31.06-158.59,29.77-158.59,28.37"/>
		</g>
		<g transform="matrix(3.9483 0 0 -3.9483 162.91 491.83)">
			<path class="st8" d="M-147.55,24.39c0.7-0.3,1.46-0.47,2.27-0.47c2.11,0,3.95,1.14,4.95,2.84c-0.7,0.3-1.46,0.47-2.27,0.47
				C-144.72,27.23-146.56,26.09-147.55,24.39"/>
		</g>
		<g transform="matrix(3.9483 0 0 -3.9483 196.44 389.95)">
			<path class="st9" d="M-152.47,9.43c-0.01-0.16-0.02-0.32-0.02-0.48c0-2.72,1.9-4.99,4.44-5.58c0.01,0.16,0.02,0.32,0.02,0.48
				C-148.04,6.57-149.93,8.84-152.47,9.43"/>
		</g>
		<g transform="matrix(3.9483 0 0 -3.9483 201.47 512.31)">
			<path class="st10" d="M-153.21,27.39h-0.9c-0.79,0-1.44,0.64-1.44,1.43v8.12c0,0.79,0.64,1.43,1.44,1.43h11.25
				c0.79,0,1.44-0.64,1.44-1.43v-8.12c0-0.79-0.64-1.43-1.44-1.43h-3.83l-7.69-3.77C-154.38,23.62-153.21,27.39-153.21,27.39z"/>
		</g>
	</g>
</g>
</svg>
