<?xml version="1.0" encoding="utf-8"?>
<!-- Generator: Adobe Illustrator 23.0.1, SVG Export Plug-In . SVG Version: 6.00 Build 0)  -->
<svg version="1.1" id="图层_1" xmlns="http://www.w3.org/2000/svg" xmlns:xlink="http://www.w3.org/1999/xlink" x="0px" y="0px"
	 viewBox="0 0 20 20" style="enable-background:new 0 0 20 20;" xml:space="preserve">
<style type="text/css">
	.st0{fill:#515151;}
	.st1{fill:none;stroke:#515151;stroke-miterlimit:10;}
	.st2{fill:#515151;stroke:#FFFFFF;stroke-width:0.75;stroke-miterlimit:10;}
</style>
<g>
	<g>
		<path class="st0" d="M11.79,4.78H2.91c-1.1,0-1.99,0.89-1.99,1.99v6.46c0,1.1,0.89,1.99,1.99,1.99h8.88c1.1,0,1.99-0.89,1.99-1.99
			V6.77C13.78,5.67,12.89,4.78,11.79,4.78L11.79,4.78z M18.11,4.81l-3.19,1.3c-0.2,0.08-0.36,0.59-0.36,1.14v4.74
			c0,0.55,0.16,1.06,0.36,1.14l3.19,1.3c0.4,0.16,0.74-0.38,0.74-1.21V6.02C18.85,5.18,18.51,4.64,18.11,4.81L18.11,4.81z
			 M18.11,4.81"/>
	</g>
</g>
<path class="st0" d="M0.44,10"/>
<line class="st1" x1="0.25" y1="9.61" x2="19.46" y2="9.61"/>
<line class="st2" x1="0.07" y1="10.14" x2="19.62" y2="10.14"/>
</svg>
