<?xml version="1.0" encoding="utf-8"?>
<!-- Generator: Adobe Illustrator 23.0.1, SVG Export Plug-In . SVG Version: 6.00 Build 0)  -->
<svg version="1.1" id="图层_1" xmlns="http://www.w3.org/2000/svg" xmlns:xlink="http://www.w3.org/1999/xlink" x="0px" y="0px"
	 viewBox="0 0 16 16" style="enable-background:new 0 0 16 16;" xml:space="preserve">
<style type="text/css">
	.st0{fill:#FFFFFF;}
</style>
<path class="st0" d="M15,4H1C0.45,4,0,3.55,0,3v0c0-0.55,0.45-1,1-1h14c0.55,0,1,0.45,1,1v0C16,3.55,15.55,4,15,4z"/>
<path class="st0" d="M0.09,5.01C0.09,9.98,3.63,14,8,14s7.91-4.02,7.91-8.99C15.91,5,0.09,4.99,0.09,5.01z M9.61,10.5
	c0,0.83-0.67,1.5-1.5,1.5H7.89c-0.83,0-1.5-0.67-1.5-1.5v-3c0-0.83,0.67-1.5,1.5-1.5h0.21c0.83,0,1.5,0.67,1.5,1.5V10.5z"/>
<circle class="st0" cx="8" cy="9.5" r="1.5"/>
</svg>
